<svg width="24" height="24" viewBox="0 0 24 24" fill="none" xmlns="http://www.w3.org/2000/svg">
<path d="M2.25 15.0046C2.25 17.4899 4.26472 19.5046 6.75 19.5046H18C20.0711 19.5046 21.75 17.8257 21.75 15.7546C21.75 14.1525 20.7453 12.7851 19.3316 12.248C19.4407 11.9371 19.5 11.6028 19.5 11.2546C19.5 9.59778 18.1569 8.25464 16.5 8.25464C16.1767 8.25464 15.8654 8.30577 15.5737 8.40038C14.9765 6.15724 12.9312 4.50464 10.5 4.50464C7.6005 4.50464 5.25 6.85514 5.25 9.75464C5.25 10.0879 5.28105 10.4138 5.3404 10.7298C3.54555 11.3213 2.25 13.0117 2.25 15.0046Z" stroke="#0F172A" stroke-width="1.5" stroke-linecap="round" stroke-linejoin="round"/>
</svg>
